<?xml version="1.0" encoding="utf-8"?>
<!-- Generator: Adobe Illustrator 17.1.0, SVG Export Plug-In . SVG Version: 6.00 Build 0)  -->
<!DOCTYPE svg PUBLIC "-//W3C//DTD SVG 1.1//EN" "http://www.w3.org/Graphics/SVG/1.1/DTD/svg11.dtd">
<svg version="1.1" id="Lager_1" xmlns="http://www.w3.org/2000/svg" xmlns:xlink="http://www.w3.org/1999/xlink" x="0px" y="0px"
	 viewBox="-60.8 276.4 160.5 160.5" enable-background="new -60.8 276.4 160.5 160.5" xml:space="preserve">
<g>
	<g>
		<defs>
			<path id="SVGID_1_" d="M-52,277.7c-4.1,0-7.5,3.3-7.5,7.5v143.3c0,4.1,3.3,7.5,7.5,7.5H91.3c4.1,0,7.5-3.3,7.5-7.5V285.2
				c0-4.1-3.3-7.5-7.5-7.5H-52z"/>
		</defs>
		<clipPath id="SVGID_2_">
			<use xlink:href="#SVGID_1_"  overflow="visible"/>
		</clipPath>
		
			<radialGradient id="SVGID_3_" cx="-23.2904" cy="-19.5562" r="3.6304" gradientTransform="matrix(18.0823 34.2202 -34.2202 18.0823 -264.7168 1451.4773)" gradientUnits="userSpaceOnUse">
			<stop  offset="0" style="stop-color:#5389C2"/>
			<stop  offset="6.185910e-002" style="stop-color:#5389C2"/>
			<stop  offset="0.2405" style="stop-color:#4D84BD"/>
			<stop  offset="0.4759" style="stop-color:#3D77AF"/>
			<stop  offset="0.7419" style="stop-color:#216098"/>
			<stop  offset="1" style="stop-color:#00457B"/>
		</radialGradient>
		<polygon clip-path="url(#SVGID_2_)" fill="url(#SVGID_3_)" points="64.2,212.4 164.1,401.3 -24.9,501.2 -124.8,312.2 		"/>
	</g>
</g>
<g>
	<g>
		<defs>
			<rect id="SVGID_4_" x="-59.5" y="277.7" width="158.1" height="158.1"/>
		</defs>
		<clipPath id="SVGID_5_">
			<use xlink:href="#SVGID_4_"  overflow="visible"/>
		</clipPath>
		<path clip-path="url(#SVGID_5_)" fill="#FFFFFF" d="M80.7,320c0.5,1.8-0.8,3.4-1.6,4.8c-2.2,3.5-5,6.5-7.1,10.1
			c-2.5,4.3-4.2,8.2-5.8,12.6c-3.5,9.1-3,15.3-7.4,21.9c-3.5,5.3-9.7,12.2-22.9,17.3c-7.5,2.5-17.4,6.4-31.9,1.4
			C-5.5,385-14,382-22.8,377.1c-0.5-0.4-1-0.8-1.2-1.4c-0.2-0.8,0-1.6,0.5-2.2c6.1-4.2,12.7-9.1,20.2-9.8c7.8-1.5,15.9-1.7,23.5-2.3
			c5.4-0.6,10-2.9,14.7-5.2c5.8-2.8,11.3-7.8,15.7-12.9c0.5-0.5,0.9-0.7,1.5-0.8c0.4,0.2,0.5,0.5,0.7,1.1c0.1,1.5-1.1,2.6-1.6,4
			c-3.1,6.1-10.7,20.4-28.5,23.5c-6.8,1.2-12.1-0.2-17.5,0.1c-7.3,0.1-13.9,0.5-20.1,3.5l-0.1,0.1c0.8,0.7,1.8,0.8,2.6,1.5
			c6.8,3,14.9,5.7,22.1,6.8c11.9,1.8,20.9-2.3,30.5-7.6c6.5-3.6,10.7-8.9,12.7-12c3.7-5.7,5.2-14.5,7.7-20.3
			c2.5-5.8,5.8-9.7,7.8-13.5h-0.8c-7.9,2.5-16.6,3-25.2,3.1c-1.5,0.1-3.1,0.5-4.5,0.9c-3.7,1.2-6.2,5-9.3,7.3
			c-5.2,5.2-11.7,8.5-19.3,7.5c-4.4-0.3-9.2-2.2-13.4-0.5c-5.8,2.8-10.5,7.3-15.7,10.8c-5.3,4.1-10.5,6.9-17.6,6.8
			c-1.8-0.3-4.3-0.8-6-1.8c-0.4-0.4-0.5-0.9-0.5-1.4c0.1-0.6,0.4-1.2,0.9-1.5c2.2,0.1,5.2-0.3,7.5-0.8c6.6-2.2,12-6,16.8-11.9
			c3.2-3.5,7-7.9,11.6-9.5c8-3.5,16.1,3.9,23.7-1.2c5-3,7.4-8.8,12.5-11.5c4.9-3.4,11.9-1.8,18.1-1.8c5.2,0.1,11.6,0.4,19.5-1.2
			c3.7-0.7,7.9-1.6,11.2-3.5C78.9,319.7,80.1,319.1,80.7,320"/>
	</g>
</g>
</svg>
